<svg width="235" height="895" viewBox="0 0 235 895" fill="none" xmlns="http://www.w3.org/2000/svg">
<path d="M0 382C0 317.383 52.3827 265 117 265V265C181.617 265 234 317.383 234 382V580H0V382Z" fill="#B8DFDC"/>
<path fill-rule="evenodd" clip-rule="evenodd" d="M117 265C52.3827 265 0 317.383 0 382V580H46V382C46 325.255 86.3964 277.945 140 267.26C132.563 265.778 124.872 265 117 265Z" fill="#9FBEBC"/>
<path d="M234 778C234 842.617 181.617 895 117 895V895C52.3827 895 4.57944e-06 842.617 1.02285e-05 778L2.75382e-05 580L234 580L234 778Z" fill="#1A998E"/>
<path fill-rule="evenodd" clip-rule="evenodd" d="M140 892.74C132.563 894.223 124.872 895 117 895C52.3827 895 -5.64902e-06 842.617 0 778L1.73097e-05 580H46L46 778C46 834.745 86.3964 882.055 140 892.74Z" fill="#187870"/>
<circle cx="118" cy="117" r="117" fill="#1A998E"/>
<path fill-rule="evenodd" clip-rule="evenodd" d="M141.691 2.39983C88.4313 13.3524 48.3815 60.4992 48.3815 117C48.3815 173.501 88.4313 220.648 141.691 231.6C134.04 233.174 126.116 234 118 234C53.3827 234 1 181.617 1 117C1 52.3827 53.3827 0 118 0C126.116 0 134.04 0.826466 141.691 2.39983Z" fill="#187870"/>
</svg>
