<svg width="21" height="20" viewBox="0 0 21 20" fill="none" xmlns="http://www.w3.org/2000/svg">
<path fill-rule="evenodd" clip-rule="evenodd" d="M20.3 10.2273C20.3 9.51824 20.2364 8.83642 20.1182 8.18188H10.7V12.0501H16.0818C15.85 13.3001 15.1455 14.3591 14.0864 15.0682V17.5773H17.3182C19.2091 15.8364 20.3 13.2728 20.3 10.2273Z" fill="#4285F4"/>
<path fill-rule="evenodd" clip-rule="evenodd" d="M10.6999 19.9999C13.3999 19.9999 15.6636 19.1046 17.3182 17.5773L14.0864 15.0682C13.1909 15.6682 12.0454 16.0227 10.6999 16.0227C8.09539 16.0227 5.89085 14.2636 5.10449 11.8999H1.76358V14.4908C3.40903 17.759 6.79085 19.9999 10.6999 19.9999Z" fill="#34A853"/>
<path fill-rule="evenodd" clip-rule="evenodd" d="M5.10449 11.8999C4.90449 11.2999 4.79092 10.6592 4.79092 10.0001C4.79092 9.34102 4.90456 8.70011 5.10456 8.10011V5.5092H1.76365C1.08638 6.8592 0.700012 8.38647 0.700012 10.0001C0.700012 11.6137 1.0863 13.1408 1.76358 14.4908L5.10449 11.8999Z" fill="#FBBC05"/>
<path fill-rule="evenodd" clip-rule="evenodd" d="M10.6999 3.97733C12.1681 3.97733 13.4863 4.48188 14.5227 5.47279L17.3909 2.60461C15.659 0.99097 13.3954 6.10352e-05 10.6999 6.10352e-05C6.79085 6.10352e-05 3.4091 2.24102 1.76365 5.5092L5.10456 8.10011C5.89092 5.73647 8.0954 3.97733 10.6999 3.97733Z" fill="#EA4335"/>
</svg>
