<svg width="25" height="24" viewBox="0 0 25 24" fill="none" xmlns="http://www.w3.org/2000/svg">
<path fill-rule="evenodd" clip-rule="evenodd" d="M11.6667 4C7.80066 4 4.66666 7.13401 4.66666 11C4.66666 14.866 7.80066 18 11.6667 18C15.5326 18 18.6667 14.866 18.6667 11C18.6667 7.13401 15.5326 4 11.6667 4ZM2.66666 11C2.66666 6.02944 6.69609 2 11.6667 2C16.6372 2 20.6667 6.02944 20.6667 11C20.6667 15.9706 16.6372 20 11.6667 20C6.69609 20 2.66666 15.9706 2.66666 11Z" fill="#484C52"/>
<path fill-rule="evenodd" clip-rule="evenodd" d="M16.6095 15.9429C17.0001 15.5524 17.6332 15.5524 18.0238 15.9429L22.3738 20.2929C22.7643 20.6834 22.7643 21.3166 22.3738 21.7071C21.9832 22.0977 21.3501 22.0977 20.9595 21.7071L16.6095 17.3571C16.219 16.9666 16.219 16.3334 16.6095 15.9429Z" fill="#484C52"/>
</svg>