<svg width="19" height="21" viewBox="0 0 19 21" fill="none" xmlns="http://www.w3.org/2000/svg">
<mask id="path-1-inside-1_298_236" fill="white">
<path d="M0.552628 4.1C0.552628 2.11178 2.1644 0.5 4.15263 0.5H14.8474C16.8356 0.5 18.4474 2.11178 18.4474 4.1V16.9C18.4474 18.8882 16.8356 20.5 14.8474 20.5H4.15263C2.16441 20.5 0.552628 18.8882 0.552628 16.9V4.1Z"/>
</mask>
<path d="M4.76314 6.01318C4.34893 6.01318 4.01314 6.34896 4.01314 6.76318C4.01314 7.17739 4.34893 7.51318 4.76314 7.51318V6.01318ZM4.76315 9.90791C4.34893 9.90791 4.01315 10.2437 4.01315 10.6579C4.01315 11.0721 4.34893 11.4079 4.76315 11.4079V9.90791ZM14.2368 11.4079C14.651 11.4079 14.9868 11.0721 14.9868 10.6579C14.9868 10.2437 14.651 9.90791 14.2368 9.90791V11.4079ZM4.76315 13.75C4.34893 13.75 4.01315 14.0858 4.01315 14.5C4.01315 14.9142 4.34893 15.25 4.76315 15.25V13.75ZM14.2368 15.25C14.651 15.25 14.9868 14.9142 14.9868 14.5C14.9868 14.0858 14.651 13.75 14.2368 13.75V15.25ZM4.76314 7.51318H14.2368V6.01318H4.76314V7.51318ZM4.76315 11.4079H14.2368V9.90791H4.76315V11.4079ZM4.76315 15.25H14.2368V13.75H4.76315V15.25ZM2.05263 4.1C2.05263 2.9402 2.99283 2 4.15263 2V-1C1.33598 -1 -0.947372 1.28335 -0.947372 4.1H2.05263ZM4.15263 2H14.8474V-1H4.15263V2ZM14.8474 2C16.0072 2 16.9474 2.9402 16.9474 4.1H19.9474C19.9474 1.28335 17.664 -1 14.8474 -1V2ZM16.9474 4.1V16.9H19.9474V4.1H16.9474ZM16.9474 16.9C16.9474 18.0598 16.0072 19 14.8474 19V22C17.664 22 19.9474 19.7167 19.9474 16.9H16.9474ZM14.8474 19H4.15263V22H14.8474V19ZM4.15263 19C2.99283 19 2.05263 18.0598 2.05263 16.9H-0.947372C-0.947372 19.7167 1.33598 22 4.15263 22V19ZM2.05263 16.9V4.1H-0.947372V16.9H2.05263Z" fill="black" mask="url(#path-1-inside-1_298_236)"/>
</svg>
