<svg width="21" height="21" viewBox="0 0 21 21" fill="none" xmlns="http://www.w3.org/2000/svg">
<path fill-rule="evenodd" clip-rule="evenodd" d="M13.0887 14.3064C11.541 15.5431 9.57848 16.1401 7.6043 15.975C5.63012 15.8098 3.79411 14.8951 2.47334 13.4185C1.15258 11.9419 0.44732 10.0157 0.502422 8.03539C0.557524 6.05508 1.3688 4.17104 2.76963 2.77021C4.17046 1.36938 6.0545 0.558104 8.03481 0.503002C10.0151 0.4479 11.9414 1.15316 13.4179 2.47392C14.8945 3.79469 15.8093 5.6307 15.9744 7.60488C16.1395 9.57906 15.5425 11.5415 14.3059 13.0893L20.2265 19.0087C20.3111 19.0875 20.3789 19.1826 20.426 19.2883C20.4731 19.3939 20.4984 19.5079 20.5004 19.6236C20.5025 19.7392 20.4812 19.8541 20.4379 19.9613C20.3946 20.0686 20.3301 20.166 20.2483 20.2478C20.1665 20.3295 20.0691 20.394 19.9619 20.4373C19.8547 20.4806 19.7398 20.5019 19.6242 20.4999C19.5085 20.4978 19.3945 20.4725 19.2888 20.4254C19.1832 20.3784 19.0881 20.3105 19.0093 20.2259L13.0887 14.3064ZM3.98731 12.5128C3.14451 11.6699 2.57049 10.5961 2.3378 9.42709C2.10511 8.25806 2.22419 7.04629 2.67999 5.94492C3.13579 4.84355 3.90786 3.90202 4.89861 3.23932C5.88936 2.57661 7.05433 2.22248 8.24629 2.22168C9.43825 2.22088 10.6037 2.57344 11.5953 3.23481C12.587 3.89618 13.3603 4.83667 13.8176 5.93743C14.2749 7.03818 14.3956 8.24979 14.1645 9.41913C13.9334 10.5885 13.3608 11.663 12.5191 12.5071L12.5134 12.5128L12.5076 12.5174C11.3767 13.6457 9.84409 14.279 8.24652 14.2782C6.64896 14.2773 5.11705 13.6424 3.98731 12.5128Z" fill="black"/>
</svg>
